<?xml version="1.0" encoding="UTF-8" standalone="no"?><svg xmlns="http://www.w3.org/2000/svg" xmlns:xlink="http://www.w3.org/1999/xlink" contentScriptType="application/ecmascript" contentStyleType="text/css" height="680px" preserveAspectRatio="none" style="width:1330px;height:680px;" version="1.1" viewBox="0 0 1330 680" width="1330px" zoomAndPan="magnify"><defs><filter height="300%" id="f7bhjyk0f97r5" width="300%" x="-1" y="-1"><feGaussianBlur result="blurOut" stdDeviation="2.0"/><feColorMatrix in="blurOut" result="blurOut2" type="matrix" values="0 0 0 0 0 0 0 0 0 0 0 0 0 0 0 0 0 0 .4 0"/><feOffset dx="4.0" dy="4.0" in="blurOut2" result="blurOut3"/><feBlend in="SourceGraphic" in2="blurOut3" mode="normal"/></filter></defs><g><text fill="#000000" font-family="sans-serif" font-size="18" lengthAdjust="spacingAndGlyphs" textLength="391" x="473.5" y="16.708">Diagramme de classe du package characters</text><!--MD5=[3eff9d4279c887ef9286477750bdaaff]
class Character--><rect fill="#FEFECE" filter="url(#f7bhjyk0f97r5)" height="252.875" id="Character" style="stroke: #A80036; stroke-width: 1.5;" width="190" x="276" y="28.9531"/><ellipse cx="335.75" cy="44.9531" fill="#A9DCDF" rx="11" ry="11" style="stroke: #A80036; stroke-width: 1.0;"/><path d="M335.8594,40.2969 L334.7031,45.375 L337.0313,45.375 L335.8594,40.2969 Z M334.375,38.0625 L337.3594,38.0625 L340.7188,50.4531 L338.2656,50.4531 L337.5,47.3906 L334.2188,47.3906 L333.4688,50.4531 L331.0313,50.4531 L334.375,38.0625 Z "/><text fill="#000000" font-family="sans-serif" font-size="12" font-style="italic" lengthAdjust="spacingAndGlyphs" textLength="62" x="356.25" y="49.1074">Character</text><line style="stroke: #A80036; stroke-width: 1.5;" x1="277" x2="465" y1="60.9531" y2="60.9531"/><rect fill="none" height="6" style="stroke: #C82930; stroke-width: 1.0;" width="6" x="284" y="68.9531"/><text fill="#000000" font-family="sans-serif" font-size="11" lengthAdjust="spacingAndGlyphs" textLength="67" x="296" y="75.1636">nom: String</text><rect fill="none" height="6" style="stroke: #C82930; stroke-width: 1.0;" width="6" x="284" y="81.7578"/><text fill="#000000" font-family="sans-serif" font-size="11" lengthAdjust="spacingAndGlyphs" textLength="38" x="296" y="87.9683">vie: int</text><rect fill="none" height="6" style="stroke: #C82930; stroke-width: 1.0;" width="6" x="284" y="94.5625"/><text fill="#000000" font-family="sans-serif" font-size="11" lengthAdjust="spacingAndGlyphs" textLength="99" x="296" y="100.7729">collision: boolean</text><rect fill="none" height="6" style="stroke: #C82930; stroke-width: 1.0;" width="6" x="284" y="107.3672"/><text fill="#000000" font-family="sans-serif" font-size="11" lengthAdjust="spacingAndGlyphs" textLength="56" x="296" y="113.5776">facing: int</text><line style="stroke: #A80036; stroke-width: 1.5;" x1="277" x2="465" y1="120.1719" y2="120.1719"/><ellipse cx="287" cy="131.1719" fill="#84BE84" rx="3" ry="3" style="stroke: #038048; stroke-width: 1.0;"/><text fill="#000000" font-family="sans-serif" font-size="11" lengthAdjust="spacingAndGlyphs" textLength="164" x="296" y="134.3823">Character(String, int, int, int)</text><ellipse cx="287" cy="143.9766" fill="#84BE84" rx="3" ry="3" style="stroke: #038048; stroke-width: 1.0;"/><text fill="#000000" font-family="sans-serif" font-size="11" lengthAdjust="spacingAndGlyphs" textLength="65" x="296" y="147.187">getVie(): int</text><ellipse cx="287" cy="156.7813" fill="#84BE84" rx="3" ry="3" style="stroke: #038048; stroke-width: 1.0;"/><text fill="#000000" font-family="sans-serif" font-size="11" lengthAdjust="spacingAndGlyphs" textLength="127" x="296" y="159.9917">getCollision(): boolean</text><ellipse cx="287" cy="169.5859" fill="#84BE84" rx="3" ry="3" style="stroke: #038048; stroke-width: 1.0;"/><text fill="#000000" font-family="sans-serif" font-size="11" lengthAdjust="spacingAndGlyphs" textLength="94" x="296" y="172.7964">getNom(): String</text><ellipse cx="287" cy="182.3906" fill="#84BE84" rx="3" ry="3" style="stroke: #038048; stroke-width: 1.0;"/><text fill="#000000" font-family="sans-serif" font-size="11" lengthAdjust="spacingAndGlyphs" textLength="124" x="296" y="185.6011">getPosition(): Position</text><ellipse cx="287" cy="195.1953" fill="#84BE84" rx="3" ry="3" style="stroke: #038048; stroke-width: 1.0;"/><text fill="#000000" font-family="sans-serif" font-size="11" lengthAdjust="spacingAndGlyphs" textLength="147" x="296" y="198.4058">setPosition(Position): void</text><ellipse cx="287" cy="208" fill="#84BE84" rx="3" ry="3" style="stroke: #038048; stroke-width: 1.0;"/><text fill="#000000" font-family="sans-serif" font-size="11" lengthAdjust="spacingAndGlyphs" textLength="88" x="296" y="211.2104">setVie(int): void</text><ellipse cx="287" cy="220.8047" fill="#84BE84" rx="3" ry="3" style="stroke: #038048; stroke-width: 1.0;"/><text fill="#000000" font-family="sans-serif" font-size="11" lengthAdjust="spacingAndGlyphs" textLength="106" x="296" y="224.0151">move(int, int): void</text><ellipse cx="287" cy="233.6094" fill="#84BE84" rx="3" ry="3" style="stroke: #038048; stroke-width: 1.0;"/><text fill="#000000" font-family="sans-serif" font-size="11" lengthAdjust="spacingAndGlyphs" textLength="127" x="296" y="236.8198">changerVie(int n): void</text><ellipse cx="287" cy="246.4141" fill="#84BE84" rx="3" ry="3" style="stroke: #038048; stroke-width: 1.0;"/><text fill="#000000" font-family="sans-serif" font-size="11" lengthAdjust="spacingAndGlyphs" textLength="127" x="296" y="249.6245">bloquer(boolean): void</text><ellipse cx="287" cy="259.2188" fill="#84BE84" rx="3" ry="3" style="stroke: #038048; stroke-width: 1.0;"/><text fill="#000000" font-family="sans-serif" font-size="11" lengthAdjust="spacingAndGlyphs" textLength="98" x="296" y="262.4292">setFacing(int): int</text><ellipse cx="287" cy="272.0234" fill="#84BE84" rx="3" ry="3" style="stroke: #038048; stroke-width: 1.0;"/><text fill="#000000" font-family="sans-serif" font-size="11" lengthAdjust="spacingAndGlyphs" textLength="95" x="296" y="275.2339">toString(): String</text><!--MD5=[a64a835c3d62471a77f615251fdde58a]
class Position--><rect fill="#FEFECE" filter="url(#f7bhjyk0f97r5)" height="150.4375" id="Position" style="stroke: #A80036; stroke-width: 1.5;" width="132" x="6" y="365.4531"/><ellipse cx="43.5" cy="381.4531" fill="#ADD1B2" rx="11" ry="11" style="stroke: #A80036; stroke-width: 1.0;"/><path d="M46.4688,387.0938 Q45.8906,387.3906 45.25,387.5313 Q44.6094,387.6875 43.9063,387.6875 Q41.4063,387.6875 40.0781,386.0469 Q38.7656,384.3906 38.7656,381.2656 Q38.7656,378.1406 40.0781,376.4844 Q41.4063,374.8281 43.9063,374.8281 Q44.6094,374.8281 45.25,374.9844 Q45.9063,375.1406 46.4688,375.4375 L46.4688,378.1563 Q45.8438,377.5781 45.25,377.3125 Q44.6563,377.0313 44.0313,377.0313 Q42.6875,377.0313 42,378.1094 Q41.3125,379.1719 41.3125,381.2656 Q41.3125,383.3594 42,384.4375 Q42.6875,385.5 44.0313,385.5 Q44.6563,385.5 45.25,385.2344 Q45.8438,384.9531 46.4688,384.375 L46.4688,387.0938 Z "/><text fill="#000000" font-family="sans-serif" font-size="12" lengthAdjust="spacingAndGlyphs" textLength="50" x="62.5" y="385.6074">Position</text><line style="stroke: #A80036; stroke-width: 1.5;" x1="7" x2="137" y1="397.4531" y2="397.4531"/><rect fill="none" height="6" style="stroke: #C82930; stroke-width: 1.0;" width="6" x="14" y="405.4531"/><text fill="#000000" font-family="sans-serif" font-size="11" lengthAdjust="spacingAndGlyphs" textLength="28" x="26" y="411.6636">x: int</text><rect fill="none" height="6" style="stroke: #C82930; stroke-width: 1.0;" width="6" x="14" y="418.2578"/><text fill="#000000" font-family="sans-serif" font-size="11" lengthAdjust="spacingAndGlyphs" textLength="28" x="26" y="424.4683">y: int</text><line style="stroke: #A80036; stroke-width: 1.5;" x1="7" x2="137" y1="431.0625" y2="431.0625"/><ellipse cx="17" cy="442.0625" fill="#84BE84" rx="3" ry="3" style="stroke: #038048; stroke-width: 1.0;"/><text fill="#000000" font-family="sans-serif" font-size="11" lengthAdjust="spacingAndGlyphs" textLength="53" x="26" y="445.2729">Position()</text><ellipse cx="17" cy="454.8672" fill="#84BE84" rx="3" ry="3" style="stroke: #038048; stroke-width: 1.0;"/><text fill="#000000" font-family="sans-serif" font-size="11" lengthAdjust="spacingAndGlyphs" textLength="89" x="26" y="458.0776">Position(int, int)</text><ellipse cx="17" cy="467.6719" fill="#84BE84" rx="3" ry="3" style="stroke: #038048; stroke-width: 1.0;"/><text fill="#000000" font-family="sans-serif" font-size="11" lengthAdjust="spacingAndGlyphs" textLength="55" x="26" y="470.8823">getX(): int</text><ellipse cx="17" cy="480.4766" fill="#84BE84" rx="3" ry="3" style="stroke: #038048; stroke-width: 1.0;"/><text fill="#000000" font-family="sans-serif" font-size="11" lengthAdjust="spacingAndGlyphs" textLength="55" x="26" y="483.687">getY(): int</text><ellipse cx="17" cy="493.2813" fill="#84BE84" rx="3" ry="3" style="stroke: #038048; stroke-width: 1.0;"/><text fill="#000000" font-family="sans-serif" font-size="11" lengthAdjust="spacingAndGlyphs" textLength="106" x="26" y="496.4917">changerX(int): void</text><ellipse cx="17" cy="506.0859" fill="#84BE84" rx="3" ry="3" style="stroke: #038048; stroke-width: 1.0;"/><text fill="#000000" font-family="sans-serif" font-size="11" lengthAdjust="spacingAndGlyphs" textLength="106" x="26" y="509.2964">changerY(int): void</text><!--MD5=[bc3161963347b7c13e1de22024247f5b]
class FacingProperty--><rect fill="#FEFECE" filter="url(#f7bhjyk0f97r5)" height="163.2422" id="FacingProperty" style="stroke: #A80036; stroke-width: 1.5;" width="180" x="173" y="358.9531"/><ellipse cx="212.3" cy="374.9531" fill="#ADD1B2" rx="11" ry="11" style="stroke: #A80036; stroke-width: 1.0;"/><path d="M215.2688,380.5938 Q214.6906,380.8906 214.05,381.0313 Q213.4094,381.1875 212.7063,381.1875 Q210.2063,381.1875 208.8781,379.5469 Q207.5656,377.8906 207.5656,374.7656 Q207.5656,371.6406 208.8781,369.9844 Q210.2063,368.3281 212.7063,368.3281 Q213.4094,368.3281 214.05,368.4844 Q214.7063,368.6406 215.2688,368.9375 L215.2688,371.6563 Q214.6438,371.0781 214.05,370.8125 Q213.4563,370.5313 212.8313,370.5313 Q211.4875,370.5313 210.8,371.6094 Q210.1125,372.6719 210.1125,374.7656 Q210.1125,376.8594 210.8,377.9375 Q211.4875,379 212.8313,379 Q213.4563,379 214.05,378.7344 Q214.6438,378.4531 215.2688,377.875 L215.2688,380.5938 Z "/><text fill="#000000" font-family="sans-serif" font-size="12" lengthAdjust="spacingAndGlyphs" textLength="94" x="231.7" y="379.1074">FacingProperty</text><line style="stroke: #A80036; stroke-width: 1.5;" x1="174" x2="352" y1="390.9531" y2="390.9531"/><rect fill="none" height="6" style="stroke: #C82930; stroke-width: 1.0;" width="6" x="181" y="398.9531"/><text fill="#000000" font-family="sans-serif" font-size="11" lengthAdjust="spacingAndGlyphs" textLength="47" x="193" y="405.1636">view: int</text><rect fill="none" height="6" style="stroke: #C82930; stroke-width: 1.0;" width="6" x="181" y="411.7578"/><text fill="#000000" font-family="sans-serif" font-size="11" lengthAdjust="spacingAndGlyphs" textLength="108" x="193" y="417.9683">spriteName: String</text><rect fill="none" height="6" style="stroke: #C82930; stroke-width: 1.0;" width="6" x="181" y="424.5625"/><text fill="#000000" font-family="sans-serif" font-size="11" lengthAdjust="spacingAndGlyphs" textLength="62" x="193" y="430.7729">idXaxis: int</text><rect fill="none" height="6" style="stroke: #C82930; stroke-width: 1.0;" width="6" x="181" y="437.3672"/><text fill="#000000" font-family="sans-serif" font-size="11" lengthAdjust="spacingAndGlyphs" textLength="62" x="193" y="443.5776">idYaxis: int</text><line style="stroke: #A80036; stroke-width: 1.5;" x1="174" x2="352" y1="450.1719" y2="450.1719"/><ellipse cx="184" cy="461.1719" fill="#84BE84" rx="3" ry="3" style="stroke: #038048; stroke-width: 1.0;"/><text fill="#000000" font-family="sans-serif" font-size="11" lengthAdjust="spacingAndGlyphs" textLength="154" x="193" y="464.3823">FacingProperty(String, x, y)</text><ellipse cx="184" cy="473.9766" fill="#84BE84" rx="3" ry="3" style="stroke: #038048; stroke-width: 1.0;"/><text fill="#000000" font-family="sans-serif" font-size="11" lengthAdjust="spacingAndGlyphs" textLength="58" x="193" y="477.187">getId(): int</text><ellipse cx="184" cy="486.7813" fill="#84BE84" rx="3" ry="3" style="stroke: #038048; stroke-width: 1.0;"/><text fill="#000000" font-family="sans-serif" font-size="11" lengthAdjust="spacingAndGlyphs" textLength="74" x="193" y="489.9917">getView(): int</text><ellipse cx="184" cy="499.5859" fill="#84BE84" rx="3" ry="3" style="stroke: #038048; stroke-width: 1.0;"/><text fill="#000000" font-family="sans-serif" font-size="11" lengthAdjust="spacingAndGlyphs" textLength="135" x="193" y="502.7964">getSpriteName(): String</text><ellipse cx="184" cy="512.3906" fill="#84BE84" rx="3" ry="3" style="stroke: #038048; stroke-width: 1.0;"/><text fill="#000000" font-family="sans-serif" font-size="11" lengthAdjust="spacingAndGlyphs" textLength="97" x="193" y="515.6011">setView(int): void</text><!--MD5=[a929757e985ec5d54543d2b431bdf757]
class Playable--><rect fill="#FEFECE" filter="url(#f7bhjyk0f97r5)" height="86.4141" id="Playable" style="stroke: #A80036; stroke-width: 1.5;" width="139" x="880.5" y="112.4531"/><ellipse cx="920.25" cy="128.4531" fill="#B4A7E5" rx="11" ry="11" style="stroke: #A80036; stroke-width: 1.0;"/><path d="M916.1719,124.2188 L916.1719,122.0625 L923.5625,122.0625 L923.5625,124.2188 L921.0938,124.2188 L921.0938,132.2969 L923.5625,132.2969 L923.5625,134.4531 L916.1719,134.4531 L916.1719,132.2969 L918.6406,132.2969 L918.6406,124.2188 L916.1719,124.2188 Z "/><text fill="#000000" font-family="sans-serif" font-size="12" font-style="italic" lengthAdjust="spacingAndGlyphs" textLength="52" x="939.75" y="132.6074">Playable</text><line style="stroke: #A80036; stroke-width: 1.5;" x1="881.5" x2="1018.5" y1="144.4531" y2="144.4531"/><line style="stroke: #A80036; stroke-width: 1.5;" x1="881.5" x2="1018.5" y1="152.4531" y2="152.4531"/><ellipse cx="891.5" cy="163.4531" fill="#84BE84" rx="3" ry="3" style="stroke: #038048; stroke-width: 1.0;"/><text fill="#000000" font-family="sans-serif" font-size="11" lengthAdjust="spacingAndGlyphs" textLength="85" x="900.5" y="166.6636">setXP(int): void</text><ellipse cx="891.5" cy="176.2578" fill="#84BE84" rx="3" ry="3" style="stroke: #038048; stroke-width: 1.0;"/><text fill="#000000" font-family="sans-serif" font-size="11" lengthAdjust="spacingAndGlyphs" textLength="113" x="900.5" y="179.4683">changerXP(int): void</text><ellipse cx="891.5" cy="189.0625" fill="#84BE84" rx="3" ry="3" style="stroke: #038048; stroke-width: 1.0;"/><text fill="#000000" font-family="sans-serif" font-size="11" lengthAdjust="spacingAndGlyphs" textLength="62" x="900.5" y="192.2729">getXP(): int</text><!--MD5=[2be3a392be9484f90305d6a7c973f53c]
class MagicPower--><rect fill="#FEFECE" filter="url(#f7bhjyk0f97r5)" height="86.4141" id="MagicPower" style="stroke: #A80036; stroke-width: 1.5;" width="159" x="1160.5" y="397.4531"/><ellipse cx="1199.35" cy="413.4531" fill="#B4A7E5" rx="11" ry="11" style="stroke: #A80036; stroke-width: 1.0;"/><path d="M1195.2719,409.2188 L1195.2719,407.0625 L1202.6625,407.0625 L1202.6625,409.2188 L1200.1938,409.2188 L1200.1938,417.2969 L1202.6625,417.2969 L1202.6625,419.4531 L1195.2719,419.4531 L1195.2719,417.2969 L1197.7406,417.2969 L1197.7406,409.2188 L1195.2719,409.2188 Z "/><text fill="#000000" font-family="sans-serif" font-size="12" font-style="italic" lengthAdjust="spacingAndGlyphs" textLength="74" x="1218.65" y="417.6074">MagicPower</text><line style="stroke: #A80036; stroke-width: 1.5;" x1="1161.5" x2="1318.5" y1="429.4531" y2="429.4531"/><line style="stroke: #A80036; stroke-width: 1.5;" x1="1161.5" x2="1318.5" y1="437.4531" y2="437.4531"/><ellipse cx="1171.5" cy="448.4531" fill="#84BE84" rx="3" ry="3" style="stroke: #038048; stroke-width: 1.0;"/><text fill="#000000" font-family="sans-serif" font-size="11" lengthAdjust="spacingAndGlyphs" textLength="133" x="1180.5" y="451.6636">changerMana(int) : void</text><ellipse cx="1171.5" cy="461.2578" fill="#84BE84" rx="3" ry="3" style="stroke: #038048; stroke-width: 1.0;"/><text fill="#000000" font-family="sans-serif" font-size="11" lengthAdjust="spacingAndGlyphs" textLength="101" x="1180.5" y="464.4683">setMana(int): void</text><ellipse cx="1171.5" cy="474.0625" fill="#84BE84" rx="3" ry="3" style="stroke: #038048; stroke-width: 1.0;"/><text fill="#000000" font-family="sans-serif" font-size="11" lengthAdjust="spacingAndGlyphs" textLength="78" x="1180.5" y="477.2729">getMana(): int</text><!--MD5=[8a5d3dd71bddc3db401ae10bbcea4261]
class NonPlayableCharacter--><rect fill="#FEFECE" filter="url(#f7bhjyk0f97r5)" height="60.8047" id="NonPlayableCharacter" style="stroke: #A80036; stroke-width: 1.5;" width="351" x="388.5" y="409.9531"/><ellipse cx="490.25" cy="425.9531" fill="#A9DCDF" rx="11" ry="11" style="stroke: #A80036; stroke-width: 1.0;"/><path d="M490.3594,421.2969 L489.2031,426.375 L491.5313,426.375 L490.3594,421.2969 Z M488.875,419.0625 L491.8594,419.0625 L495.2188,431.4531 L492.7656,431.4531 L492,428.3906 L488.7188,428.3906 L487.9688,431.4531 L485.5313,431.4531 L488.875,419.0625 Z "/><text fill="#000000" font-family="sans-serif" font-size="12" font-style="italic" lengthAdjust="spacingAndGlyphs" textLength="139" x="510.75" y="430.1074">NonPlayableCharacter</text><line style="stroke: #A80036; stroke-width: 1.5;" x1="389.5" x2="738.5" y1="441.9531" y2="441.9531"/><line style="stroke: #A80036; stroke-width: 1.5;" x1="389.5" x2="738.5" y1="449.9531" y2="449.9531"/><ellipse cx="399.5" cy="460.9531" fill="#84BE84" rx="3" ry="3" style="stroke: #038048; stroke-width: 1.0;"/><text fill="#000000" font-family="sans-serif" font-size="11" lengthAdjust="spacingAndGlyphs" textLength="325" x="408.5" y="464.1636">NonPlayableCharacter(String, int, int, int, FacingProperty)</text><!--MD5=[dbfb7044e1da585d7aadce38bc485ae6]
class PlayableCharacter--><rect fill="#FEFECE" filter="url(#f7bhjyk0f97r5)" height="73.6094" id="PlayableCharacter" style="stroke: #A80036; stroke-width: 1.5;" width="351" x="774.5" y="403.4531"/><ellipse cx="888.75" cy="419.4531" fill="#A9DCDF" rx="11" ry="11" style="stroke: #A80036; stroke-width: 1.0;"/><path d="M888.8594,414.7969 L887.7031,419.875 L890.0313,419.875 L888.8594,414.7969 Z M887.375,412.5625 L890.3594,412.5625 L893.7188,424.9531 L891.2656,424.9531 L890.5,421.8906 L887.2188,421.8906 L886.4688,424.9531 L884.0313,424.9531 L887.375,412.5625 Z "/><text fill="#000000" font-family="sans-serif" font-size="12" font-style="italic" lengthAdjust="spacingAndGlyphs" textLength="114" x="909.25" y="423.6074">PlayableCharacter</text><line style="stroke: #A80036; stroke-width: 1.5;" x1="775.5" x2="1124.5" y1="435.4531" y2="435.4531"/><rect fill="none" height="6" style="stroke: #C82930; stroke-width: 1.0;" width="6" x="782.5" y="443.4531"/><text fill="#000000" font-family="sans-serif" font-size="11" lengthAdjust="spacingAndGlyphs" textLength="39" x="794.5" y="449.6636">xp: int;</text><line style="stroke: #A80036; stroke-width: 1.5;" x1="775.5" x2="1124.5" y1="456.2578" y2="456.2578"/><ellipse cx="785.5" cy="467.2578" fill="#84BE84" rx="3" ry="3" style="stroke: #038048; stroke-width: 1.0;"/><text fill="#000000" font-family="sans-serif" font-size="11" lengthAdjust="spacingAndGlyphs" textLength="325" x="794.5" y="470.4683">NonPlayableCharacter(String, int, int, int, FacingProperty)</text><!--MD5=[d2df070263bb043eefd32cdee64b5aa7]
class Advanturer--><rect fill="#FEFECE" filter="url(#f7bhjyk0f97r5)" height="60.8047" id="Advanturer" style="stroke: #A80036; stroke-width: 1.5;" width="196" x="852" y="595.4531"/><ellipse cx="911.25" cy="611.4531" fill="#ADD1B2" rx="11" ry="11" style="stroke: #A80036; stroke-width: 1.0;"/><path d="M914.2188,617.0938 Q913.6406,617.3906 913,617.5313 Q912.3594,617.6875 911.6563,617.6875 Q909.1563,617.6875 907.8281,616.0469 Q906.5156,614.3906 906.5156,611.2656 Q906.5156,608.1406 907.8281,606.4844 Q909.1563,604.8281 911.6563,604.8281 Q912.3594,604.8281 913,604.9844 Q913.6563,605.1406 914.2188,605.4375 L914.2188,608.1563 Q913.5938,607.5781 913,607.3125 Q912.4063,607.0313 911.7813,607.0313 Q910.4375,607.0313 909.75,608.1094 Q909.0625,609.1719 909.0625,611.2656 Q909.0625,613.3594 909.75,614.4375 Q910.4375,615.5 911.7813,615.5 Q912.4063,615.5 913,615.2344 Q913.5938,614.9531 914.2188,614.375 L914.2188,617.0938 Z "/><text fill="#000000" font-family="sans-serif" font-size="12" lengthAdjust="spacingAndGlyphs" textLength="69" x="931.75" y="615.6074">Advanturer</text><line style="stroke: #A80036; stroke-width: 1.5;" x1="853" x2="1047" y1="627.4531" y2="627.4531"/><line style="stroke: #A80036; stroke-width: 1.5;" x1="853" x2="1047" y1="635.4531" y2="635.4531"/><ellipse cx="863" cy="646.4531" fill="#84BE84" rx="3" ry="3" style="stroke: #038048; stroke-width: 1.0;"/><text fill="#000000" font-family="sans-serif" font-size="11" lengthAdjust="spacingAndGlyphs" textLength="170" x="872" y="649.6636">Advanturer(String, int, int, int)</text><!--MD5=[5bf7d035477f2aea02ceb8f2b2c533b6]
class Wizard--><rect fill="#FEFECE" filter="url(#f7bhjyk0f97r5)" height="86.4141" id="Wizard" style="stroke: #A80036; stroke-width: 1.5;" width="192" x="1114" y="582.9531"/><ellipse cx="1185.75" cy="598.9531" fill="#ADD1B2" rx="11" ry="11" style="stroke: #A80036; stroke-width: 1.0;"/><path d="M1188.7188,604.5938 Q1188.1406,604.8906 1187.5,605.0313 Q1186.8594,605.1875 1186.1563,605.1875 Q1183.6563,605.1875 1182.3281,603.5469 Q1181.0156,601.8906 1181.0156,598.7656 Q1181.0156,595.6406 1182.3281,593.9844 Q1183.6563,592.3281 1186.1563,592.3281 Q1186.8594,592.3281 1187.5,592.4844 Q1188.1563,592.6406 1188.7188,592.9375 L1188.7188,595.6563 Q1188.0938,595.0781 1187.5,594.8125 Q1186.9063,594.5313 1186.2813,594.5313 Q1184.9375,594.5313 1184.25,595.6094 Q1183.5625,596.6719 1183.5625,598.7656 Q1183.5625,600.8594 1184.25,601.9375 Q1184.9375,603 1186.2813,603 Q1186.9063,603 1187.5,602.7344 Q1188.0938,602.4531 1188.7188,601.875 L1188.7188,604.5938 Z "/><text fill="#000000" font-family="sans-serif" font-size="12" lengthAdjust="spacingAndGlyphs" textLength="40" x="1206.25" y="603.1074">Wizard</text><line style="stroke: #A80036; stroke-width: 1.5;" x1="1115" x2="1305" y1="614.9531" y2="614.9531"/><rect fill="none" height="6" style="stroke: #C82930; stroke-width: 1.0;" width="6" x="1122" y="622.9531"/><text fill="#000000" font-family="sans-serif" font-size="11" lengthAdjust="spacingAndGlyphs" textLength="54" x="1134" y="629.1636">mana: int</text><line style="stroke: #A80036; stroke-width: 1.5;" x1="1115" x2="1305" y1="635.7578" y2="635.7578"/><ellipse cx="1125" cy="646.7578" fill="#84BE84" rx="3" ry="3" style="stroke: #038048; stroke-width: 1.0;"/><text fill="#000000" font-family="sans-serif" font-size="11" lengthAdjust="spacingAndGlyphs" textLength="166" x="1134" y="649.9683">Wizard(String, int, int, int, int)</text><ellipse cx="1125" cy="659.5625" fill="#84BE84" rx="3" ry="3" style="stroke: #038048; stroke-width: 1.0;"/><text fill="#000000" font-family="sans-serif" font-size="11" lengthAdjust="spacingAndGlyphs" textLength="95" x="1134" y="662.7729">toString(): String</text><!--MD5=[d2c4278637bdc93ab6ebd71329cfa63c]
class Monster--><rect fill="#FEFECE" filter="url(#f7bhjyk0f97r5)" height="60.8047" id="Monster" style="stroke: #A80036; stroke-width: 1.5;" width="180" x="474" y="595.4531"/><ellipse cx="534.25" cy="611.4531" fill="#ADD1B2" rx="11" ry="11" style="stroke: #A80036; stroke-width: 1.0;"/><path d="M537.2188,617.0938 Q536.6406,617.3906 536,617.5313 Q535.3594,617.6875 534.6563,617.6875 Q532.1563,617.6875 530.8281,616.0469 Q529.5156,614.3906 529.5156,611.2656 Q529.5156,608.1406 530.8281,606.4844 Q532.1563,604.8281 534.6563,604.8281 Q535.3594,604.8281 536,604.9844 Q536.6563,605.1406 537.2188,605.4375 L537.2188,608.1563 Q536.5938,607.5781 536,607.3125 Q535.4063,607.0313 534.7813,607.0313 Q533.4375,607.0313 532.75,608.1094 Q532.0625,609.1719 532.0625,611.2656 Q532.0625,613.3594 532.75,614.4375 Q533.4375,615.5 534.7813,615.5 Q535.4063,615.5 536,615.2344 Q536.5938,614.9531 537.2188,614.375 L537.2188,617.0938 Z "/><text fill="#000000" font-family="sans-serif" font-size="12" lengthAdjust="spacingAndGlyphs" textLength="51" x="554.75" y="615.6074">Monster</text><line style="stroke: #A80036; stroke-width: 1.5;" x1="475" x2="653" y1="627.4531" y2="627.4531"/><line style="stroke: #A80036; stroke-width: 1.5;" x1="475" x2="653" y1="635.4531" y2="635.4531"/><ellipse cx="485" cy="646.4531" fill="#84BE84" rx="3" ry="3" style="stroke: #038048; stroke-width: 1.0;"/><text fill="#000000" font-family="sans-serif" font-size="11" lengthAdjust="spacingAndGlyphs" textLength="154" x="494" y="649.6636">Monster(String, int, int, int)</text><!--MD5=[90107d809afcc7a0b4403391955a1895]
link Character to Position--><path d="M275.78,245.0731 C238.04,280.3631 194.34,321.4431 155,358.9531 C150.69,363.0631 146.26,367.3031 141.8,371.5931 " fill="none" id="Character-&gt;Position" style="stroke: #A80036; stroke-width: 1.0;"/><polygon fill="#A80036" points="138.05,375.2031,147.3121,371.8544,141.6564,371.7399,141.7709,366.0842,138.05,375.2031" style="stroke: #A80036; stroke-width: 1.0;"/><rect fill="none" height="6" style="stroke: #C82930; stroke-width: 1.0;" width="6" x="206" y="318.0195"/><text fill="#000000" font-family="sans-serif" font-size="13" lengthAdjust="spacingAndGlyphs" textLength="50" x="216" y="325.02">position</text><text fill="#000000" font-family="sans-serif" font-size="13" lengthAdjust="spacingAndGlyphs" textLength="8" x="259.8734" y="248.6942">1</text><text fill="#000000" font-family="sans-serif" font-size="13" lengthAdjust="spacingAndGlyphs" textLength="8" x="146.1495" y="363.8407">1</text><!--MD5=[a55157850aceb03674fd5f0a4830bbd4]
link Character to FacingProperty--><path d="M323,282.2331 C313.74,306.4831 304.25,331.3631 295.62,353.9731 " fill="none" id="Character-&gt;FacingProperty" style="stroke: #A80036; stroke-width: 1.0;"/><polygon fill="#A80036" points="293.79,358.7631,300.7399,351.7847,295.5753,354.0927,293.2673,348.9281,293.79,358.7631" style="stroke: #A80036; stroke-width: 1.0;"/><rect fill="none" height="6" style="stroke: #C82930; stroke-width: 1.0;" width="6" x="314" y="318.0195"/><text fill="#000000" font-family="sans-serif" font-size="13" lengthAdjust="spacingAndGlyphs" textLength="92" x="324" y="325.02">facingProperty</text><text fill="#000000" font-family="sans-serif" font-size="13" lengthAdjust="spacingAndGlyphs" textLength="8" x="311.9938" y="302.0705">1</text><text fill="#000000" font-family="sans-serif" font-size="13" lengthAdjust="spacingAndGlyphs" textLength="8" x="288.176" y="347.8817">1</text><!--MD5=[65918cc59a60932d252dffcdd5e039f3]
reverse link Character to NonPlayableCharacter--><path d="M468.18,298.9531 C496.87,341.0131 525.47,382.9631 543.86,409.9231 " fill="none" id="Character&lt;-NonPlayableCharacter" style="stroke: #A80036; stroke-width: 1.0;"/><polygon fill="none" points="462.26,302.6931,456.78,282.2331,473.83,294.8131,462.26,302.6931" style="stroke: #A80036; stroke-width: 1.0;"/><!--MD5=[ea3c630b14af6fd020fb89d43324e7e4]
reverse link Character to PlayableCharacter--><path d="M484.36,211.8631 C600.35,268.5531 777.21,354.9931 876.23,403.3931 " fill="none" id="Character&lt;-PlayableCharacter" style="stroke: #A80036; stroke-width: 1.0;"/><polygon fill="none" points="481.18,218.0931,466.29,203.0231,487.33,205.5231,481.18,218.0931" style="stroke: #A80036; stroke-width: 1.0;"/><!--MD5=[8624f5f73bc8a3805999aab13f1abb2b]
reverse link Playable to PlayableCharacter--><path d="M950,218.8731 C950,275.5031 950,357.0131 950,403.4531 " fill="none" id="Playable&lt;-PlayableCharacter" style="stroke: #A80036; stroke-width: 1.0; stroke-dasharray: 7.0,7.0;"/><polygon fill="none" points="943,218.5131,950,198.5131,957,218.5131,943,218.5131" style="stroke: #A80036; stroke-width: 1.0;"/><!--MD5=[10cc57436fb4e3183ced3a4a0c79fd80]
reverse link PlayableCharacter to Advanturer--><path d="M950,498.1631 C950,530.3331 950,569.2631 950,595.4331 " fill="none" id="PlayableCharacter&lt;-Advanturer" style="stroke: #A80036; stroke-width: 1.0;"/><polygon fill="none" points="943,497.7031,950,477.7031,957,497.7031,943,497.7031" style="stroke: #A80036; stroke-width: 1.0;"/><!--MD5=[41318fadcda06083f27741670e2371ea]
reverse link PlayableCharacter to Wizard--><path d="M1017.66,489.2031 C1058.79,518.2331 1110.83,554.9631 1150.41,582.8931 " fill="none" id="PlayableCharacter&lt;-Wizard" style="stroke: #A80036; stroke-width: 1.0;"/><polygon fill="none" points="1013.36,494.7431,1001.06,477.4831,1021.43,483.3031,1013.36,494.7431" style="stroke: #A80036; stroke-width: 1.0;"/><!--MD5=[acbf8071d24f4e2c6262ae95cfbe0c83]
reverse link MagicPower to Wizard--><path d="M1229.85,503.5131 C1225.59,529.5831 1220.74,559.2531 1216.9,582.7331 " fill="none" id="MagicPower&lt;-Wizard" style="stroke: #A80036; stroke-width: 1.0; stroke-dasharray: 7.0,7.0;"/><polygon fill="none" points="1222.98,502.1631,1233.12,483.5531,1236.8,504.4231,1222.98,502.1631" style="stroke: #A80036; stroke-width: 1.0;"/><!--MD5=[fdf056a695d23765ecc9f879d7ecce5c]
reverse link NonPlayableCharacter to Monster--><path d="M564,491.6231 C564,524.8931 564,567.4131 564,595.3831 " fill="none" id="NonPlayableCharacter&lt;-Monster" style="stroke: #A80036; stroke-width: 1.0;"/><polygon fill="none" points="557,491.3431,564,471.3431,571,491.3431,557,491.3431" style="stroke: #A80036; stroke-width: 1.0;"/><!--MD5=[cff701affdbea53960272ed38b7a579e]
@startuml

title Diagramme de classe du package characters

Character "1" - -> "1" Position : - position

Character "1" - -> "1" FacingProperty : - facingProperty

abstract class Character {
    + Character(String, int, int, int)
    - nom: String
    - vie: int
    - collision: boolean
    - facing: int
    + getVie(): int
    + getCollision(): boolean
    + getNom(): String
    + getPosition(): Position
    + setPosition(Position): void
    + setVie(int): void 
    + move(int, int): void
    + changerVie(int n): void
    + bloquer(boolean): void
    + setFacing(int): int
    + toString(): String
}

interface Playable {
    + setXP(int): void
    + changerXP(int): void
    + getXP(): int
}

interface MagicPower {
    + changerMana(int) : void
    + setMana(int): void
    + getMana(): int
}

abstract class NonPlayableCharacter extends Character {
    + NonPlayableCharacter(String, int, int, int, FacingProperty)
}
abstract class PlayableCharacter extends Character implements Playable {
    - xp: int;
    + NonPlayableCharacter(String, int, int, int, FacingProperty)
}

class Advanturer extends PlayableCharacter {
    + Advanturer(String, int, int, int)
}
class Wizard extends PlayableCharacter implements MagicPower {
    - mana: int
    + Wizard(String, int, int, int, int)
    + toString(): String
}

class Monster extends NonPlayableCharacter {
    + Monster(String, int, int, int)
}

class Position {
    + Position()
    + Position(int, int)
    - x: int
    - y: int
    + getX(): int
    + getY(): int
    + changerX(int): void
    + changerY(int): void
}

class FacingProperty {
    - view: int
    - spriteName: String
    - idXaxis: int
    - idYaxis: int
    + FacingProperty(String, x, y)
    + getId(): int
    + getView(): int
    + getSpriteName(): String
    + setView(int): void
}

@enduml

PlantUML version 1.2020.10(Sun May 17 11:35:57 CEST 2020)
(GPL source distribution)
Java Runtime: OpenJDK Runtime Environment
JVM: OpenJDK 64-Bit Server VM
Java Version: 11.0.8+10-post-Ubuntu-0ubuntu120.04
Operating System: Linux
Default Encoding: UTF-8
Language: fr
Country: FR
--></g></svg>